<?xml version="1.0" encoding="utf-8"?>
<!-- Generator: Adobe Illustrator 23.0.1, SVG Export Plug-In . SVG Version: 6.00 Build 0)  -->
<svg version="1.1" id="Layer_1" xmlns="http://www.w3.org/2000/svg" xmlns:xlink="http://www.w3.org/1999/xlink" x="0px" y="0px"
	 viewBox="0 0 800 600" style="enable-background:new 0 0 800 600;" xml:space="preserve">
<style type="text/css">
	.st0{fill:#FFFFFF;stroke:url(#SVGID_1_);stroke-miterlimit:10;}
	.st1{fill:url(#SVGID_2_);}
	.st2{fill:#FFFFFF;}
	.st3{fill:url(#SVGID_3_);}
	.st4{fill:url(#SVGID_4_);}
	.st5{fill:url(#SVGID_5_);}
	.st6{fill:url(#SVGID_6_);}
	.st7{fill:url(#SVGID_7_);}
	.st8{fill:url(#SVGID_8_);}
	.st9{fill:#2681BC;}
</style>
<linearGradient id="SVGID_1_" gradientUnits="userSpaceOnUse" x1="255.1889" y1="268.875" x2="527.1583" y2="268.875">
	<stop  offset="0" style="stop-color:#448AFF"/>
	<stop  offset="1" style="stop-color:#E040FB"/>
</linearGradient>
<rect x="255.69" y="133.39" class="st0" width="270.97" height="270.97"/>
<g>
	<linearGradient id="SVGID_2_" gradientUnits="userSpaceOnUse" x1="305.036" y1="234.4704" x2="477.3112" y2="234.4704">
		<stop  offset="0" style="stop-color:#448AFF"/>
		<stop  offset="1" style="stop-color:#E040FB"/>
	</linearGradient>
	<circle class="st1" cx="391.17" cy="234.47" r="86.14"/>
	<g>
		<g>
			<g>
				<path class="st2" d="M391.17,302.12c-8.66,0-16.79-3.37-22.91-9.49c-6.12-6.12-9.49-14.26-9.49-22.91
					c0-8.65,3.37-16.79,9.49-22.91c1.15-1.15,3.01-1.15,4.16,0c1.15,1.15,1.15,3.01,0,4.16c-5.01,5.01-7.77,11.67-7.77,18.75
					c0,7.08,2.76,13.75,7.77,18.75c5.01,5.01,11.67,7.77,18.76,7.77c7.08,0,13.75-2.76,18.75-7.77c5.01-5.01,7.77-11.67,7.77-18.75
					c0-7.08-2.76-13.75-7.77-18.75c-1.15-1.15-1.15-3.01,0-4.16c1.15-1.15,3.01-1.15,4.16,0c6.12,6.12,9.49,14.26,9.49,22.91
					c0,8.66-3.37,16.79-9.49,22.91C407.97,298.75,399.83,302.12,391.17,302.12z"/>
			</g>
			<g>
				<path class="st2" d="M391.17,294.91c-8.04,0-14.59-6.54-14.59-14.59c0-8.04,6.54-14.59,14.59-14.59
					c8.04,0,14.59,6.54,14.59,14.59C405.76,288.37,399.22,294.91,391.17,294.91z M391.17,271.61c-4.8,0-8.71,3.91-8.71,8.71
					c0,4.8,3.91,8.71,8.71,8.71c4.8,0,8.71-3.91,8.71-8.71C399.88,275.52,395.98,271.61,391.17,271.61z"/>
			</g>
		</g>
		<g>
			<g>
				<path class="st2" d="M426.42,266.87c-8.66,0-16.79-3.37-22.91-9.49c-1.15-1.15-1.15-3.01,0-4.16c1.15-1.15,3.01-1.15,4.16,0
					c5.01,5.01,11.67,7.77,18.75,7.77c7.09,0,13.75-2.76,18.75-7.77c5.01-5.01,7.77-11.67,7.77-18.75c0-7.08-2.76-13.75-7.77-18.76
					c-5.01-5.01-11.67-7.77-18.75-7.77c-7.08,0-13.75,2.76-18.75,7.77c-1.15,1.15-3.01,1.15-4.16,0c-1.15-1.15-1.15-3.01,0-4.16
					c6.12-6.12,14.26-9.49,22.91-9.49c8.66,0,16.79,3.37,22.91,9.49c6.12,6.12,9.49,14.26,9.49,22.91c0,8.66-3.37,16.79-9.49,22.91
					C443.21,263.5,435.07,266.87,426.42,266.87z"/>
			</g>
			<g>
				<path class="st2" d="M437.03,249.06c-8.04,0-14.59-6.54-14.59-14.59c0-8.04,6.54-14.59,14.59-14.59
					c8.04,0,14.59,6.54,14.59,14.59C451.62,242.51,445.07,249.06,437.03,249.06z M437.03,225.76c-4.8,0-8.71,3.91-8.71,8.71
					s3.91,8.71,8.71,8.71c4.8,0,8.71-3.91,8.71-8.71S441.83,225.76,437.03,225.76z"/>
			</g>
		</g>
		<g>
			<g>
				<path class="st2" d="M412.01,223c-0.75,0-1.51-0.29-2.08-0.86c-1.15-1.15-1.15-3.01,0-4.16c5.01-5.01,7.77-11.67,7.77-18.75
					c0-7.08-2.76-13.75-7.77-18.75c-5.01-5.01-11.67-7.77-18.75-7.77c-7.09,0-13.75,2.76-18.76,7.77
					c-5.01,5.01-7.77,11.67-7.77,18.75c0,7.09,2.76,13.75,7.77,18.75c1.15,1.15,1.15,3.01,0,4.16c-1.15,1.15-3.01,1.15-4.16,0
					c-6.12-6.12-9.49-14.26-9.49-22.91c0-8.65,3.37-16.79,9.49-22.91c6.12-6.12,14.26-9.49,22.91-9.49c8.66,0,16.79,3.37,22.91,9.49
					c6.12,6.12,9.49,14.26,9.49,22.91c0,8.66-3.37,16.79-9.49,22.91C413.51,222.71,412.76,223,412.01,223z"/>
			</g>
			<g>
				<path class="st2" d="M391.17,203.21c-8.04,0-14.59-6.54-14.59-14.59c0-8.04,6.54-14.59,14.59-14.59
					c8.04,0,14.59,6.54,14.59,14.59C405.76,196.66,399.22,203.21,391.17,203.21z M391.17,179.91c-4.8,0-8.71,3.91-8.71,8.71
					c0,4.8,3.91,8.71,8.71,8.71c4.8,0,8.71-3.91,8.71-8.71C399.88,183.82,395.98,179.91,391.17,179.91z"/>
			</g>
		</g>
		<g>
			<g>
				<path class="st2" d="M355.93,266.87c-8.66,0-16.79-3.37-22.91-9.49c-6.12-6.12-9.49-14.26-9.49-22.91
					c0-8.66,3.37-16.79,9.49-22.91c6.12-6.12,14.26-9.49,22.91-9.49c8.66,0,16.79,3.37,22.91,9.49c1.15,1.15,1.15,3.01,0,4.16
					c-1.15,1.15-3.01,1.15-4.16,0c-5.01-5.01-11.67-7.77-18.75-7.77c-7.08,0-13.74,2.76-18.75,7.77
					c-5.01,5.01-7.77,11.67-7.77,18.76c0,7.08,2.76,13.75,7.77,18.75c5.01,5.01,11.67,7.77,18.75,7.77c7.09,0,13.75-2.76,18.75-7.77
					c1.15-1.15,3.01-1.15,4.16,0c1.15,1.15,1.15,3.01,0,4.16C372.72,263.5,364.59,266.87,355.93,266.87z"/>
			</g>
			<g>
				<path class="st2" d="M345.32,249.06c-8.04,0-14.59-6.54-14.59-14.59c0-8.04,6.54-14.59,14.59-14.59
					c8.04,0,14.59,6.54,14.59,14.59C359.91,242.51,353.36,249.06,345.32,249.06z M345.32,225.76c-4.8,0-8.71,3.91-8.71,8.71
					s3.91,8.71,8.71,8.71c4.8,0,8.71-3.91,8.71-8.71S350.12,225.76,345.32,225.76z"/>
			</g>
		</g>
	</g>
</g>
<g>
	<g>
		<linearGradient id="SVGID_3_" gradientUnits="userSpaceOnUse" x1="330.7324" y1="365.043" x2="490.7969" y2="365.043">
			<stop  offset="0" style="stop-color:#448AFF"/>
			<stop  offset="0.684" style="stop-color:#2681BC"/>
		</linearGradient>
		<path class="st3" d="M354.97,384.67c-0.77,0-1.65-0.42-2.64-1.25c-0.99-0.83-2.02-1.92-3.1-3.26c-1.07-1.34-2.13-2.82-3.17-4.44
			c-1.04-1.62-2.02-3.24-2.95-4.87c-0.93-1.63-1.71-3.1-2.35-4.42c-0.86,2.94-1.69,5.85-2.47,8.71c-0.78,2.86-1.53,5.51-2.23,7.94
			c-0.93,0-1.8-0.26-2.62-0.77c-0.82-0.51-1.22-1.18-1.22-2.02c0-0.35,0.08-0.77,0.24-1.25c0.16-0.48,0.3-0.94,0.43-1.39
			c0.93-2.78,1.76-5.27,2.5-7.46c0.74-2.19,1.43-4.21,2.09-6.05c0.66-1.84,1.33-3.66,2.02-5.47c0.69-1.81,1.45-3.7,2.28-5.69
			c0.83-1.98,1.79-4.22,2.88-6.72c-1.25,0.26-2.34,0.59-3.29,1.01c-0.94,0.42-1.71,0.78-2.3,1.1c-0.59,0.32-1,0.48-1.22,0.48
			c-0.16,0-0.4-0.1-0.72-0.31s-0.6-0.46-0.84-0.77c-0.24-0.3-0.36-0.57-0.36-0.79c0.9-0.35,1.94-0.74,3.14-1.15
			c1.2-0.42,2.52-0.78,3.96-1.08c1.44-0.3,2.93-0.46,4.46-0.46c1.44,0,2.93,0.17,4.46,0.5c1.54,0.34,2.96,0.87,4.27,1.61
			c1.31,0.74,2.37,1.7,3.17,2.88c0.8,1.18,1.2,2.61,1.2,4.27c0,1.5-0.34,2.81-1.01,3.91c-0.67,1.1-1.57,2.04-2.69,2.81
			c-1.12,0.77-2.35,1.39-3.7,1.87c-1.34,0.48-2.7,0.86-4.08,1.13c-1.38,0.27-2.65,0.46-3.82,0.55c-1.17,0.1-2.14,0.16-2.9,0.19
			c1.02,1.63,2.03,3.22,3.02,4.75c0.99,1.54,2.06,3.06,3.19,4.58c1.14,1.52,2.46,3.04,3.96,4.56c1.5,1.52,3.28,3.06,5.33,4.63
			c-0.13,0.64-0.52,1.15-1.18,1.54C356.07,384.48,355.48,384.67,354.97,384.67z M341.87,362.59c1.79-0.13,3.56-0.42,5.3-0.86
			c1.74-0.45,3.33-1.07,4.75-1.87c1.42-0.8,2.56-1.8,3.41-3c0.85-1.2,1.27-2.62,1.27-4.25c0-1.66-0.42-2.97-1.25-3.91
			c-0.83-0.94-1.9-1.62-3.22-2.04c-1.31-0.42-2.69-0.64-4.13-0.67c-1.09,2.14-2.14,4.66-3.17,7.56
			C343.82,356.44,342.83,359.46,341.87,362.59z"/>
		<linearGradient id="SVGID_4_" gradientUnits="userSpaceOnUse" x1="330.7324" y1="365.043" x2="490.7969" y2="365.043">
			<stop  offset="0" style="stop-color:#448AFF"/>
			<stop  offset="0.684" style="stop-color:#2681BC"/>
		</linearGradient>
		<path class="st4" d="M362.99,381.12c-1.06,0-1.98-0.35-2.76-1.06c-0.78-0.7-1.18-1.76-1.18-3.17c0-1.12,0.26-2.34,0.77-3.65
			c0.51-1.31,1.22-2.61,2.11-3.89c0.9-1.28,1.92-2.44,3.07-3.48c1.15-1.04,2.38-1.88,3.7-2.52c1.31-0.64,2.62-0.96,3.94-0.96
			c1.38,0,2.54,0.35,3.5,1.06c0.96,0.7,1.44,1.63,1.44,2.78c0,0.86-0.3,1.49-0.91,1.87c-0.61,0.38-1.33,0.5-2.16,0.34
			c0.06-0.29,0.12-0.58,0.17-0.86s0.07-0.59,0.07-0.91c0-0.64-0.13-1.22-0.38-1.73c-0.26-0.51-0.8-0.77-1.63-0.77
			c-0.9,0-1.81,0.3-2.74,0.91c-0.93,0.61-1.82,1.4-2.66,2.38c-0.85,0.98-1.61,2.05-2.28,3.22s-1.2,2.31-1.58,3.43
			s-0.58,2.13-0.58,3.02c0,1.02,0.37,1.54,1.1,1.54c0.74,0,1.55-0.36,2.45-1.08c0.9-0.72,1.8-1.62,2.71-2.71
			c0.91-1.09,1.78-2.2,2.62-3.34c0.83-1.13,1.55-2.1,2.16-2.9c0.1-0.16,0.22-0.24,0.38-0.24c0.13,0.03,0.38,0.1,0.74,0.22
			c0.37,0.11,0.71,0.28,1.03,0.5c0.32,0.22,0.48,0.51,0.48,0.86c0,0.32-0.14,0.73-0.41,1.22c-0.27,0.5-0.59,1.04-0.96,1.63
			c-0.37,0.59-0.69,1.18-0.96,1.78c-0.27,0.59-0.41,1.16-0.41,1.7c0,0.42,0.11,0.81,0.34,1.18c0.22,0.37,0.59,0.55,1.1,0.55
			c0.77,0,1.85-0.57,3.24-1.7c1.39-1.14,2.81-3.06,4.25-5.78l0.91,0.91c-0.77,1.73-1.69,3.26-2.76,4.58
			c-1.07,1.33-2.2,2.37-3.38,3.12c-1.18,0.75-2.38,1.13-3.6,1.13c-1.31,0-2.29-0.42-2.93-1.25c-0.64-0.83-0.99-1.73-1.06-2.69
			c0-0.06,0-0.11,0-0.14s0-0.06,0-0.1c-1.28,1.54-2.46,2.75-3.53,3.65C365.35,380.67,364.2,381.12,362.99,381.12z"/>
		<linearGradient id="SVGID_5_" gradientUnits="userSpaceOnUse" x1="330.7324" y1="365.043" x2="490.7969" y2="365.043">
			<stop  offset="0" style="stop-color:#448AFF"/>
			<stop  offset="0.684" style="stop-color:#2681BC"/>
		</linearGradient>
		<path class="st5" d="M383.82,380.69c-0.7,0-1.21-0.54-1.51-1.63c-0.3-1.09-0.46-2.35-0.46-3.79c0-1.47,0.25-3.25,0.74-5.33
			c0.5-2.08,1.17-4.27,2.02-6.58c0.85-2.3,1.79-4.56,2.83-6.77c1.04-2.21,2.11-4.21,3.22-6.02c1.1-1.81,2.16-3.26,3.17-4.34
			c1.01-1.09,1.9-1.63,2.66-1.63c0.67,0,1.18,0.37,1.54,1.1c0.35,0.74,0.53,1.5,0.53,2.3c0,0.86-0.2,1.93-0.6,3.19
			c-0.4,1.26-0.95,2.62-1.66,4.06c-0.7,1.44-1.53,2.86-2.47,4.25c-0.94,1.39-1.97,2.66-3.07,3.82c-1.1,1.15-2.25,2.08-3.43,2.78
			c-0.42,1.09-0.74,2.1-0.98,3.05c-0.24,0.94-0.41,1.83-0.5,2.66c-0.1,0.83-0.14,1.65-0.14,2.45c0,0.16,0.01,0.33,0.02,0.5
			c0.02,0.18,0.02,0.34,0.02,0.5c0.13-0.19,0.34-0.69,0.62-1.49s0.68-1.74,1.18-2.81c0.5-1.07,1.11-2.13,1.85-3.17
			c0.74-1.04,1.6-1.9,2.59-2.59c0.99-0.69,2.13-1.03,3.41-1.03c1.09,0,1.94,0.25,2.54,0.74c0.61,0.5,1.04,1.1,1.3,1.82
			c0.26,0.72,0.38,1.45,0.38,2.18c0,1.02-0.17,1.98-0.5,2.88s-0.67,1.74-1.01,2.52c-0.34,0.78-0.5,1.53-0.5,2.23
			c0,0.58,0.13,0.98,0.38,1.2c0.26,0.22,0.56,0.34,0.91,0.34c0.7,0,1.53-0.35,2.47-1.06c0.94-0.7,1.89-1.64,2.83-2.81
			c0.94-1.17,1.75-2.46,2.42-3.86l0.77,0.82c-0.74,1.6-1.6,3.07-2.59,4.42c-0.99,1.34-2.08,2.42-3.26,3.22
			c-1.18,0.8-2.46,1.2-3.84,1.2c-1.22,0-2.14-0.32-2.78-0.96c-0.64-0.64-0.96-1.44-0.96-2.4c0-0.67,0.12-1.42,0.36-2.23
			c0.24-0.82,0.47-1.64,0.7-2.47c0.22-0.83,0.34-1.58,0.34-2.26c0-0.77-0.17-1.3-0.5-1.58s-0.74-0.43-1.22-0.43
			c-0.8,0-1.52,0.31-2.16,0.94s-1.22,1.43-1.73,2.42c-0.51,0.99-0.99,2.04-1.44,3.14c-0.45,1.1-0.9,2.15-1.34,3.14
			c-0.45,0.99-0.92,1.8-1.42,2.42C385.03,380.38,384.46,380.69,383.82,380.69z M388.33,363.03c0.83-0.74,1.63-1.62,2.4-2.64
			c0.77-1.02,1.48-2.09,2.14-3.19c0.66-1.1,1.23-2.18,1.73-3.22c0.5-1.04,0.89-1.98,1.18-2.81c0.29-0.83,0.45-1.47,0.48-1.92
			c0-0.03,0-0.06,0-0.07c0-0.02,0-0.04,0-0.07c-0.19,0-0.6,0.39-1.22,1.18s-1.34,1.84-2.16,3.17c-0.82,1.33-1.63,2.82-2.45,4.49
			S388.91,361.3,388.33,363.03z"/>
		<linearGradient id="SVGID_6_" gradientUnits="userSpaceOnUse" x1="330.7324" y1="365.043" x2="490.7969" y2="365.043">
			<stop  offset="0" style="stop-color:#448AFF"/>
			<stop  offset="0.684" style="stop-color:#2681BC"/>
		</linearGradient>
		<path class="st6" d="M410.36,382.37c-1.82,0-3.21-0.57-4.15-1.7s-1.42-2.7-1.42-4.68c0-1.57,0.27-3.42,0.82-5.57
			c0.54-2.14,1.26-4.39,2.16-6.74c0.89-2.35,1.9-4.66,3-6.91c1.1-2.26,2.23-4.3,3.38-6.14c1.15-1.84,2.24-3.3,3.26-4.39
			c1.02-1.09,1.9-1.63,2.64-1.63c0.64,0,1.12,0.37,1.44,1.1c0.32,0.74,0.5,1.47,0.53,2.21c0,0.9-0.19,1.98-0.58,3.26
			c-0.38,1.28-0.93,2.64-1.63,4.08c-0.7,1.44-1.52,2.86-2.45,4.27c-0.93,1.41-1.94,2.69-3.05,3.84c-1.1,1.15-2.25,2.06-3.43,2.74
			c-0.22,0.42-0.5,1.14-0.84,2.16c-0.34,1.02-0.64,2.19-0.91,3.5s-0.41,2.62-0.41,3.94c0,1.28,0.18,2.38,0.55,3.29
			c0.37,0.91,1.02,1.37,1.94,1.37c0.83,0,1.73-0.38,2.69-1.15s1.74-1.7,2.35-2.78c-1.18-0.64-2.08-1.54-2.69-2.69
			c-0.61-1.15-0.91-2.37-0.91-3.65c0-1.57,0.42-2.83,1.27-3.79c0.85-0.96,1.88-1.44,3.1-1.44c1.02,0,1.87,0.39,2.54,1.18
			s1.01,1.99,1.01,3.62c0,0.93-0.12,1.91-0.36,2.95c-0.24,1.04-0.6,2.07-1.08,3.1c0.16,0,0.29,0.01,0.41,0.02
			c0.11,0.02,0.26,0.02,0.46,0.02c1.12,0,2.08-0.3,2.88-0.91c0.8-0.61,1.47-1.33,2.02-2.16c0.54-0.83,0.98-1.58,1.3-2.26l0.72,1.01
			c-0.8,1.89-1.78,3.33-2.95,4.32c-1.17,0.99-2.7,1.49-4.58,1.49c-0.16,0-0.33,0-0.5,0s-0.34-0.02-0.5-0.05
			c-0.9,1.44-2.01,2.66-3.34,3.67C413.71,381.87,412.15,382.37,410.36,382.37z M411.8,363.08c0.8-0.74,1.58-1.59,2.33-2.57
			c0.75-0.98,1.46-2,2.11-3.07c0.66-1.07,1.23-2.13,1.73-3.17s0.9-1.98,1.22-2.83c0.32-0.85,0.51-1.53,0.58-2.04
			c0-0.06,0-0.12,0-0.17c0-0.05,0-0.09,0-0.12c-0.29,0.1-0.76,0.56-1.42,1.39c-0.66,0.83-1.39,1.91-2.21,3.24
			c-0.82,1.33-1.61,2.8-2.38,4.42C413,359.77,412.35,361.41,411.8,363.08z M417.08,374.83c0.29-0.64,0.5-1.29,0.65-1.94
			c0.14-0.66,0.22-1.37,0.22-2.14c0-1.15-0.14-2-0.41-2.54c-0.27-0.54-0.6-0.82-0.98-0.82c-0.42,0-0.78,0.29-1.08,0.86
			c-0.3,0.58-0.46,1.26-0.46,2.06c0,0.67,0.14,1.46,0.43,2.35C415.74,373.57,416.28,374.29,417.08,374.83z"/>
		<linearGradient id="SVGID_7_" gradientUnits="userSpaceOnUse" x1="330.7324" y1="365.043" x2="490.7969" y2="365.043">
			<stop  offset="0" style="stop-color:#448AFF"/>
			<stop  offset="0.684" style="stop-color:#2681BC"/>
		</linearGradient>
		<path class="st7" d="M427.64,381.12c-1.06,0-1.98-0.35-2.76-1.06c-0.78-0.7-1.18-1.76-1.18-3.17c0-1.12,0.26-2.34,0.77-3.65
			c0.51-1.31,1.22-2.61,2.11-3.89c0.9-1.28,1.92-2.44,3.07-3.48c1.15-1.04,2.38-1.88,3.7-2.52c1.31-0.64,2.62-0.96,3.94-0.96
			c1.38,0,2.54,0.35,3.5,1.06c0.96,0.7,1.44,1.63,1.44,2.78c0,0.86-0.3,1.49-0.91,1.87c-0.61,0.38-1.33,0.5-2.16,0.34
			c0.06-0.29,0.12-0.58,0.17-0.86s0.07-0.59,0.07-0.91c0-0.64-0.13-1.22-0.38-1.73c-0.26-0.51-0.8-0.77-1.63-0.77
			c-0.9,0-1.81,0.3-2.74,0.91c-0.93,0.61-1.82,1.4-2.66,2.38c-0.85,0.98-1.61,2.05-2.28,3.22s-1.2,2.31-1.58,3.43
			s-0.58,2.13-0.58,3.02c0,1.02,0.37,1.54,1.1,1.54c0.74,0,1.55-0.36,2.45-1.08c0.9-0.72,1.8-1.62,2.71-2.71
			c0.91-1.09,1.78-2.2,2.62-3.34c0.83-1.13,1.55-2.1,2.16-2.9c0.1-0.16,0.22-0.24,0.38-0.24c0.13,0.03,0.38,0.1,0.74,0.22
			c0.37,0.11,0.71,0.28,1.03,0.5c0.32,0.22,0.48,0.51,0.48,0.86c0,0.32-0.14,0.73-0.41,1.22c-0.27,0.5-0.59,1.04-0.96,1.63
			c-0.37,0.59-0.69,1.18-0.96,1.78c-0.27,0.59-0.41,1.16-0.41,1.7c0,0.42,0.11,0.81,0.34,1.18c0.22,0.37,0.59,0.55,1.1,0.55
			c0.77,0,1.85-0.57,3.24-1.7c1.39-1.14,2.81-3.06,4.25-5.78l0.91,0.91c-0.77,1.73-1.69,3.26-2.76,4.58
			c-1.07,1.33-2.2,2.37-3.38,3.12c-1.18,0.75-2.38,1.13-3.6,1.13c-1.31,0-2.29-0.42-2.93-1.25c-0.64-0.83-0.99-1.73-1.06-2.69
			c0-0.06,0-0.11,0-0.14s0-0.06,0-0.1c-1.28,1.54-2.46,2.75-3.53,3.65C430,380.67,428.86,381.12,427.64,381.12z"/>
		<linearGradient id="SVGID_8_" gradientUnits="userSpaceOnUse" x1="330.7324" y1="365.043" x2="490.7969" y2="365.043">
			<stop  offset="0" style="stop-color:#448AFF"/>
			<stop  offset="0.684" style="stop-color:#2681BC"/>
		</linearGradient>
		<path class="st8" d="M455.15,380.12c-1.18,0-2.14-0.31-2.88-0.94c-0.74-0.62-1.1-1.46-1.1-2.52c0-0.9,0.22-1.86,0.67-2.88
			c0.45-1.02,0.9-2.03,1.37-3.02c0.46-0.99,0.7-1.87,0.7-2.64c0-0.74-0.24-1.35-0.72-1.85c-0.48-0.5-1.04-0.9-1.68-1.22
			c-0.71,1.76-1.5,3.46-2.38,5.11c-0.88,1.65-1.59,2.94-2.14,3.86l-0.72-1.39c0.45-0.83,1.04-2.02,1.78-3.55
			c0.74-1.54,1.44-3.25,2.11-5.14c-0.32-0.32-0.48-0.75-0.48-1.3c0-0.83,0.26-1.62,0.77-2.35c0.51-0.74,1.01-1.1,1.49-1.1
			c0.38,0,0.66,0.22,0.84,0.65c0.18,0.43,0.26,0.73,0.26,0.89s-0.07,0.45-0.22,0.86c-0.14,0.42-0.25,0.72-0.31,0.91
			c0.03,0.35,0.31,0.7,0.84,1.03s1.13,0.73,1.8,1.18c0.67,0.45,1.26,1.01,1.78,1.68c0.51,0.67,0.77,1.52,0.77,2.54
			c0,0.93-0.21,1.87-0.62,2.83c-0.42,0.96-0.83,1.86-1.25,2.69s-0.62,1.55-0.62,2.16c0,0.45,0.12,0.74,0.36,0.89
			c0.24,0.14,0.52,0.22,0.84,0.22c0.77,0,1.57-0.23,2.4-0.7c0.83-0.46,1.65-1.06,2.45-1.8c0.8-0.74,1.5-1.51,2.11-2.33
			c0.61-0.82,1.07-1.56,1.39-2.23l1.15,0.86c-0.61,1.38-1.49,2.73-2.64,4.06c-1.15,1.33-2.43,2.42-3.84,3.26
			C458.01,379.69,456.59,380.12,455.15,380.12z"/>
	</g>
	<g>
		<g>
			<path class="st9" d="M354.97,384.67c-0.77,0-1.65-0.42-2.64-1.25c-0.99-0.83-2.02-1.92-3.1-3.26c-1.07-1.34-2.13-2.82-3.17-4.44
				c-1.04-1.62-2.02-3.24-2.95-4.87c-0.93-1.63-1.71-3.1-2.35-4.42c-0.86,2.94-1.69,5.85-2.47,8.71c-0.78,2.86-1.53,5.51-2.23,7.94
				c-0.93,0-1.8-0.26-2.62-0.77c-0.82-0.51-1.22-1.18-1.22-2.02c0-0.35,0.08-0.77,0.24-1.25c0.16-0.48,0.3-0.94,0.43-1.39
				c0.93-2.78,1.76-5.27,2.5-7.46c0.74-2.19,1.43-4.21,2.09-6.05c0.66-1.84,1.33-3.66,2.02-5.47c0.69-1.81,1.45-3.7,2.28-5.69
				c0.83-1.98,1.79-4.22,2.88-6.72c-1.25,0.26-2.34,0.59-3.29,1.01c-0.94,0.42-1.71,0.78-2.3,1.1c-0.59,0.32-1,0.48-1.22,0.48
				c-0.16,0-0.4-0.1-0.72-0.31s-0.6-0.46-0.84-0.77c-0.24-0.3-0.36-0.57-0.36-0.79c0.9-0.35,1.94-0.74,3.14-1.15
				c1.2-0.42,2.52-0.78,3.96-1.08c1.44-0.3,2.93-0.46,4.46-0.46c1.44,0,2.93,0.17,4.46,0.5c1.54,0.34,2.96,0.87,4.27,1.61
				c1.31,0.74,2.37,1.7,3.17,2.88c0.8,1.18,1.2,2.61,1.2,4.27c0,1.5-0.34,2.81-1.01,3.91c-0.67,1.1-1.57,2.04-2.69,2.81
				c-1.12,0.77-2.35,1.39-3.7,1.87c-1.34,0.48-2.7,0.86-4.08,1.13c-1.38,0.27-2.65,0.46-3.82,0.55c-1.17,0.1-2.14,0.16-2.9,0.19
				c1.02,1.63,2.03,3.22,3.02,4.75c0.99,1.54,2.06,3.06,3.19,4.58c1.14,1.52,2.46,3.04,3.96,4.56c1.5,1.52,3.28,3.06,5.33,4.63
				c-0.13,0.64-0.52,1.15-1.18,1.54C356.07,384.48,355.48,384.67,354.97,384.67z M341.87,362.59c1.79-0.13,3.56-0.42,5.3-0.86
				c1.74-0.45,3.33-1.07,4.75-1.87c1.42-0.8,2.56-1.8,3.41-3c0.85-1.2,1.27-2.62,1.27-4.25c0-1.66-0.42-2.97-1.25-3.91
				c-0.83-0.94-1.9-1.62-3.22-2.04c-1.31-0.42-2.69-0.64-4.13-0.67c-1.09,2.14-2.14,4.66-3.17,7.56
				C343.82,356.44,342.83,359.46,341.87,362.59z"/>
			<path class="st9" d="M362.99,381.12c-1.06,0-1.98-0.35-2.76-1.06c-0.78-0.7-1.18-1.76-1.18-3.17c0-1.12,0.26-2.34,0.77-3.65
				c0.51-1.31,1.22-2.61,2.11-3.89c0.9-1.28,1.92-2.44,3.07-3.48c1.15-1.04,2.38-1.88,3.7-2.52c1.31-0.64,2.62-0.96,3.94-0.96
				c1.38,0,2.54,0.35,3.5,1.06c0.96,0.7,1.44,1.63,1.44,2.78c0,0.86-0.3,1.49-0.91,1.87c-0.61,0.38-1.33,0.5-2.16,0.34
				c0.06-0.29,0.12-0.58,0.17-0.86s0.07-0.59,0.07-0.91c0-0.64-0.13-1.22-0.38-1.73c-0.26-0.51-0.8-0.77-1.63-0.77
				c-0.9,0-1.81,0.3-2.74,0.91c-0.93,0.61-1.82,1.4-2.66,2.38c-0.85,0.98-1.61,2.05-2.28,3.22s-1.2,2.31-1.58,3.43
				s-0.58,2.13-0.58,3.02c0,1.02,0.37,1.54,1.1,1.54c0.74,0,1.55-0.36,2.45-1.08c0.9-0.72,1.8-1.62,2.71-2.71
				c0.91-1.09,1.78-2.2,2.62-3.34c0.83-1.13,1.55-2.1,2.16-2.9c0.1-0.16,0.22-0.24,0.38-0.24c0.13,0.03,0.38,0.1,0.74,0.22
				c0.37,0.11,0.71,0.28,1.03,0.5c0.32,0.22,0.48,0.51,0.48,0.86c0,0.32-0.14,0.73-0.41,1.22c-0.27,0.5-0.59,1.04-0.96,1.63
				c-0.37,0.59-0.69,1.18-0.96,1.78c-0.27,0.59-0.41,1.16-0.41,1.7c0,0.42,0.11,0.81,0.34,1.18c0.22,0.37,0.59,0.55,1.1,0.55
				c0.77,0,1.85-0.57,3.24-1.7c1.39-1.14,2.81-3.06,4.25-5.78l0.91,0.91c-0.77,1.73-1.69,3.26-2.76,4.58
				c-1.07,1.33-2.2,2.37-3.38,3.12c-1.18,0.75-2.38,1.13-3.6,1.13c-1.31,0-2.29-0.42-2.93-1.25c-0.64-0.83-0.99-1.73-1.06-2.69
				c0-0.06,0-0.11,0-0.14s0-0.06,0-0.1c-1.28,1.54-2.46,2.75-3.53,3.65C365.35,380.67,364.2,381.12,362.99,381.12z"/>
			<path class="st9" d="M383.82,380.69c-0.7,0-1.21-0.54-1.51-1.63c-0.3-1.09-0.46-2.35-0.46-3.79c0-1.47,0.25-3.25,0.74-5.33
				c0.5-2.08,1.17-4.27,2.02-6.58c0.85-2.3,1.79-4.56,2.83-6.77c1.04-2.21,2.11-4.21,3.22-6.02c1.1-1.81,2.16-3.26,3.17-4.34
				c1.01-1.09,1.9-1.63,2.66-1.63c0.67,0,1.18,0.37,1.54,1.1c0.35,0.74,0.53,1.5,0.53,2.3c0,0.86-0.2,1.93-0.6,3.19
				c-0.4,1.26-0.95,2.62-1.66,4.06c-0.7,1.44-1.53,2.86-2.47,4.25c-0.94,1.39-1.97,2.66-3.07,3.82c-1.1,1.15-2.25,2.08-3.43,2.78
				c-0.42,1.09-0.74,2.1-0.98,3.05c-0.24,0.94-0.41,1.83-0.5,2.66c-0.1,0.83-0.14,1.65-0.14,2.45c0,0.16,0.01,0.33,0.02,0.5
				c0.02,0.18,0.02,0.34,0.02,0.5c0.13-0.19,0.34-0.69,0.62-1.49s0.68-1.74,1.18-2.81c0.5-1.07,1.11-2.13,1.85-3.17
				c0.74-1.04,1.6-1.9,2.59-2.59c0.99-0.69,2.13-1.03,3.41-1.03c1.09,0,1.94,0.25,2.54,0.74c0.61,0.5,1.04,1.1,1.3,1.82
				c0.26,0.72,0.38,1.45,0.38,2.18c0,1.02-0.17,1.98-0.5,2.88s-0.67,1.74-1.01,2.52c-0.34,0.78-0.5,1.53-0.5,2.23
				c0,0.58,0.13,0.98,0.38,1.2c0.26,0.22,0.56,0.34,0.91,0.34c0.7,0,1.53-0.35,2.47-1.06c0.94-0.7,1.89-1.64,2.83-2.81
				c0.94-1.17,1.75-2.46,2.42-3.86l0.77,0.82c-0.74,1.6-1.6,3.07-2.59,4.42c-0.99,1.34-2.08,2.42-3.26,3.22
				c-1.18,0.8-2.46,1.2-3.84,1.2c-1.22,0-2.14-0.32-2.78-0.96c-0.64-0.64-0.96-1.44-0.96-2.4c0-0.67,0.12-1.42,0.36-2.23
				c0.24-0.82,0.47-1.64,0.7-2.47c0.22-0.83,0.34-1.58,0.34-2.26c0-0.77-0.17-1.3-0.5-1.58s-0.74-0.43-1.22-0.43
				c-0.8,0-1.52,0.31-2.16,0.94s-1.22,1.43-1.73,2.42c-0.51,0.99-0.99,2.04-1.44,3.14c-0.45,1.1-0.9,2.15-1.34,3.14
				c-0.45,0.99-0.92,1.8-1.42,2.42C385.03,380.38,384.46,380.69,383.82,380.69z M388.33,363.03c0.83-0.74,1.63-1.62,2.4-2.64
				c0.77-1.02,1.48-2.09,2.14-3.19c0.66-1.1,1.23-2.18,1.73-3.22c0.5-1.04,0.89-1.98,1.18-2.81c0.29-0.83,0.45-1.47,0.48-1.92
				c0-0.03,0-0.06,0-0.07c0-0.02,0-0.04,0-0.07c-0.19,0-0.6,0.39-1.22,1.18s-1.34,1.84-2.16,3.17c-0.82,1.33-1.63,2.82-2.45,4.49
				S388.91,361.3,388.33,363.03z"/>
			<path class="st9" d="M410.36,382.37c-1.82,0-3.21-0.57-4.15-1.7s-1.42-2.7-1.42-4.68c0-1.57,0.27-3.42,0.82-5.57
				c0.54-2.14,1.26-4.39,2.16-6.74c0.89-2.35,1.9-4.66,3-6.91c1.1-2.26,2.23-4.3,3.38-6.14c1.15-1.84,2.24-3.3,3.26-4.39
				c1.02-1.09,1.9-1.63,2.64-1.63c0.64,0,1.12,0.37,1.44,1.1c0.32,0.74,0.5,1.47,0.53,2.21c0,0.9-0.19,1.98-0.58,3.26
				c-0.38,1.28-0.93,2.64-1.63,4.08c-0.7,1.44-1.52,2.86-2.45,4.27c-0.93,1.41-1.94,2.69-3.05,3.84c-1.1,1.15-2.25,2.06-3.43,2.74
				c-0.22,0.42-0.5,1.14-0.84,2.16c-0.34,1.02-0.64,2.19-0.91,3.5s-0.41,2.62-0.41,3.94c0,1.28,0.18,2.38,0.55,3.29
				c0.37,0.91,1.02,1.37,1.94,1.37c0.83,0,1.73-0.38,2.69-1.15s1.74-1.7,2.35-2.78c-1.18-0.64-2.08-1.54-2.69-2.69
				c-0.61-1.15-0.91-2.37-0.91-3.65c0-1.57,0.42-2.83,1.27-3.79c0.85-0.96,1.88-1.44,3.1-1.44c1.02,0,1.87,0.39,2.54,1.18
				s1.01,1.99,1.01,3.62c0,0.93-0.12,1.91-0.36,2.95c-0.24,1.04-0.6,2.07-1.08,3.1c0.16,0,0.29,0.01,0.41,0.02
				c0.11,0.02,0.26,0.02,0.46,0.02c1.12,0,2.08-0.3,2.88-0.91c0.8-0.61,1.47-1.33,2.02-2.16c0.54-0.83,0.98-1.58,1.3-2.26l0.72,1.01
				c-0.8,1.89-1.78,3.33-2.95,4.32c-1.17,0.99-2.7,1.49-4.58,1.49c-0.16,0-0.33,0-0.5,0s-0.34-0.02-0.5-0.05
				c-0.9,1.44-2.01,2.66-3.34,3.67C413.71,381.87,412.15,382.37,410.36,382.37z M411.8,363.08c0.8-0.74,1.58-1.59,2.33-2.57
				c0.75-0.98,1.46-2,2.11-3.07c0.66-1.07,1.23-2.13,1.73-3.17s0.9-1.98,1.22-2.83c0.32-0.85,0.51-1.53,0.58-2.04
				c0-0.06,0-0.12,0-0.17c0-0.05,0-0.09,0-0.12c-0.29,0.1-0.76,0.56-1.42,1.39c-0.66,0.83-1.39,1.91-2.21,3.24
				c-0.82,1.33-1.61,2.8-2.38,4.42C413,359.77,412.35,361.41,411.8,363.08z M417.08,374.83c0.29-0.64,0.5-1.29,0.65-1.94
				c0.14-0.66,0.22-1.37,0.22-2.14c0-1.15-0.14-2-0.41-2.54c-0.27-0.54-0.6-0.82-0.98-0.82c-0.42,0-0.78,0.29-1.08,0.86
				c-0.3,0.58-0.46,1.26-0.46,2.06c0,0.67,0.14,1.46,0.43,2.35C415.74,373.57,416.28,374.29,417.08,374.83z"/>
			<path class="st9" d="M427.64,381.12c-1.06,0-1.98-0.35-2.76-1.06c-0.78-0.7-1.18-1.76-1.18-3.17c0-1.12,0.26-2.34,0.77-3.65
				c0.51-1.31,1.22-2.61,2.11-3.89c0.9-1.28,1.92-2.44,3.07-3.48c1.15-1.04,2.38-1.88,3.7-2.52c1.31-0.64,2.62-0.96,3.94-0.96
				c1.38,0,2.54,0.35,3.5,1.06c0.96,0.7,1.44,1.63,1.44,2.78c0,0.86-0.3,1.49-0.91,1.87c-0.61,0.38-1.33,0.5-2.16,0.34
				c0.06-0.29,0.12-0.58,0.17-0.86s0.07-0.59,0.07-0.91c0-0.64-0.13-1.22-0.38-1.73c-0.26-0.51-0.8-0.77-1.63-0.77
				c-0.9,0-1.81,0.3-2.74,0.91c-0.93,0.61-1.82,1.4-2.66,2.38c-0.85,0.98-1.61,2.05-2.28,3.22s-1.2,2.31-1.58,3.43
				s-0.58,2.13-0.58,3.02c0,1.02,0.37,1.54,1.1,1.54c0.74,0,1.55-0.36,2.45-1.08c0.9-0.72,1.8-1.62,2.71-2.71
				c0.91-1.09,1.78-2.2,2.62-3.34c0.83-1.13,1.55-2.1,2.16-2.9c0.1-0.16,0.22-0.24,0.38-0.24c0.13,0.03,0.38,0.1,0.74,0.22
				c0.37,0.11,0.71,0.28,1.03,0.5c0.32,0.22,0.48,0.51,0.48,0.86c0,0.32-0.14,0.73-0.41,1.22c-0.27,0.5-0.59,1.04-0.96,1.63
				c-0.37,0.59-0.69,1.18-0.96,1.78c-0.27,0.59-0.41,1.16-0.41,1.7c0,0.42,0.11,0.81,0.34,1.18c0.22,0.37,0.59,0.55,1.1,0.55
				c0.77,0,1.85-0.57,3.24-1.7c1.39-1.14,2.81-3.06,4.25-5.78l0.91,0.91c-0.77,1.73-1.69,3.26-2.76,4.58
				c-1.07,1.33-2.2,2.37-3.38,3.12c-1.18,0.75-2.38,1.13-3.6,1.13c-1.31,0-2.29-0.42-2.93-1.25c-0.64-0.83-0.99-1.73-1.06-2.69
				c0-0.06,0-0.11,0-0.14s0-0.06,0-0.1c-1.28,1.54-2.46,2.75-3.53,3.65C430,380.67,428.86,381.12,427.64,381.12z"/>
			<path class="st9" d="M455.15,380.12c-1.18,0-2.14-0.31-2.88-0.94c-0.74-0.62-1.1-1.46-1.1-2.52c0-0.9,0.22-1.86,0.67-2.88
				c0.45-1.02,0.9-2.03,1.37-3.02c0.46-0.99,0.7-1.87,0.7-2.64c0-0.74-0.24-1.35-0.72-1.85c-0.48-0.5-1.04-0.9-1.68-1.22
				c-0.71,1.76-1.5,3.46-2.38,5.11c-0.88,1.65-1.59,2.94-2.14,3.86l-0.72-1.39c0.45-0.83,1.04-2.02,1.78-3.55
				c0.74-1.54,1.44-3.25,2.11-5.14c-0.32-0.32-0.48-0.75-0.48-1.3c0-0.83,0.26-1.62,0.77-2.35c0.51-0.74,1.01-1.1,1.49-1.1
				c0.38,0,0.66,0.22,0.84,0.65c0.18,0.43,0.26,0.73,0.26,0.89s-0.07,0.45-0.22,0.86c-0.14,0.42-0.25,0.72-0.31,0.91
				c0.03,0.35,0.31,0.7,0.84,1.03s1.13,0.73,1.8,1.18c0.67,0.45,1.26,1.01,1.78,1.68c0.51,0.67,0.77,1.52,0.77,2.54
				c0,0.93-0.21,1.87-0.62,2.83c-0.42,0.96-0.83,1.86-1.25,2.69s-0.62,1.55-0.62,2.16c0,0.45,0.12,0.74,0.36,0.89
				c0.24,0.14,0.52,0.22,0.84,0.22c0.77,0,1.57-0.23,2.4-0.7c0.83-0.46,1.65-1.06,2.45-1.8c0.8-0.74,1.5-1.51,2.11-2.33
				c0.61-0.82,1.07-1.56,1.39-2.23l1.15,0.86c-0.61,1.38-1.49,2.73-2.64,4.06c-1.15,1.33-2.43,2.42-3.84,3.26
				C458.01,379.69,456.59,380.12,455.15,380.12z"/>
		</g>
	</g>
</g>
</svg>
